<svg xmlns="http://www.w3.org/2000/svg" viewBox="0 0 300 231.06"><defs><style>.cls-1{opacity:0.2;}.cls-2{fill:#000072;}.cls-3{fill:#9e9e9e;}.cls-4{fill:#8e8fb3;}.cls-5{opacity:0.15;}.cls-6{fill:#686868;}.cls-7{fill:#fff;}.cls-8{fill:#3a3a3a;}.cls-9{fill:#e8e8e8;}.cls-10{opacity:0.5;}.cls-11{fill:#f27e80;}.cls-12{fill:#ff5c64;}.cls-13{fill:#68d8ff;}.cls-14{fill:#4ca9fc;}.cls-15{fill:#69f1ff;}.cls-16{opacity:0.3;}</style></defs><g id="Camada_2" data-name="Camada 2"><g id="Layer_1" data-name="Layer 1"><g class="cls-1"><ellipse class="cls-2" cx="174.82" cy="218.52" rx="123.18" ry="12.54"/></g><path class="cls-3" d="M267.07,220.3H149.29c-32.8,0-50-16.65-56.86-37.83-7.18-22.22,11-56.17,11-56.17s44,1.63,78.09,4.15c27,2,33.76,4.8,43.71,14,15.68,14.44,15.38,36,15.38,36s18.5-.12,35.48,4.56C296.14,190.53,300.33,220.3,267.07,220.3Z"/><path class="cls-4" d="M267.07,220.31H149.29c-32.81,0-50-16.66-56.86-37.84-6-18.58,5.77-45.37,9.78-53.64.78-1.62,1.27-2.53,1.27-2.53s38.46,1.42,71.32,3.67q3.44.22,6.77.48c27,2,33.76,4.8,43.71,14,15.68,14.44,15.39,36,15.39,36a155.77,155.77,0,0,1,19.12,1.36,120.88,120.88,0,0,1,16.34,3.2C296.14,190.53,300.33,220.31,267.07,220.31Z"/><g class="cls-5"><path class="cls-2" d="M226.7,220.31H149.29c-32.81,0-50-16.66-56.86-37.84-6-18.58,5.77-45.37,9.78-53.64.78-1.62,1.27-2.53,1.27-2.53s38.46,1.42,71.32,3.67c3.44,5.39,6.31,11.56,4.66,15.41-5,11.67-44.5,21.65-50,36-4.69,12.23,5.24,20.77,16.09,22.74,32.68,5.93,48.16-35.76,59.9-25.6C212.23,184.42,220.74,204.45,226.7,220.31Z"/></g><path class="cls-6" d="M216.43,220.31H149.29c-32.81,0-50-16.66-56.86-37.84-6-18.58,5.77-45.37,9.78-53.64,29.83,3.51,60.28,15.5,61.36,21.63.42,2.37-.44,5.07-1.64,8.17-13.11,6.88-29.12,14-32.48,22.77-4.69,12.23,5.24,20.77,16.09,22.74,9.77,1.77,18-.71,25.05-4.78C186.2,209.48,211,210.53,211,210.53Z"/><path class="cls-7" d="M267.07,220.31h-9.74c4.11-6.12,9-18.49,2.46-38.51a120.88,120.88,0,0,1,16.34,3.2C296.14,190.53,300.33,220.31,267.07,220.31Z"/><g class="cls-5"><path class="cls-2" d="M267.07,220.31h-9.74c4.11-6.12,9-18.49,2.46-38.51,1.84.24,3.75.52,5.7.86,5.79,4.05,14.73,10,15.87,22.69a3,3,0,0,0,5.42,1.4,20,20,0,0,0,3.1-10.54C294.91,206.73,289.53,220.31,267.07,220.31Z"/></g><path class="cls-2" d="M278.08,212.8a11.6,11.6,0,0,0,1.39.15c.48,0,1,0,1.44,0a12.07,12.07,0,0,0,2.78-.48A13.1,13.1,0,0,0,285,212l.6-.3a4.08,4.08,0,0,0,.57-.34,9.77,9.77,0,0,0,2-1.66l.08-.08a2,2,0,1,1,2.81,2.8,1,1,0,0,1-.22.19,13.58,13.58,0,0,1-3.13,1.85,8.53,8.53,0,0,1-.84.32L286,215a14.7,14.7,0,0,1-5.16.37,15.48,15.48,0,0,1-1.66-.26,14.92,14.92,0,0,1-1.67-.45,1,1,0,0,1-.61-1.26,1,1,0,0,1,1.09-.65Z"/><path class="cls-2" d="M281.28,197.51a23.61,23.61,0,0,1,2.65,0,26.54,26.54,0,0,1,2.65.22,22,22,0,0,1,2.69.59,14.57,14.57,0,0,1,2.69,1.16h0a2,2,0,1,1-2,3.46,2.75,2.75,0,0,1-.33-.23,10.13,10.13,0,0,0-1.71-1.19,16.32,16.32,0,0,0-2.08-.91,20.54,20.54,0,0,0-2.27-.66c-.77-.18-1.58-.33-2.34-.43h0a1,1,0,0,1-.86-1.11A1,1,0,0,1,281.28,197.51Z"/><path class="cls-7" d="M216.43,220.31H149.29c-32.81,0-50-16.66-56.86-37.84-6-18.58,5.77-45.37,9.78-53.64,29.83,3.51,60.29,15.5,61.36,21.63,1.4,8-11.57,19.74-3.44,37.54,9.49,20.79,50.9,22.53,50.9,22.53Z"/><g class="cls-5"><path class="cls-2" d="M216.43,220.31H149.29c-32.81,0-50-16.66-56.86-37.84-6-18.58,5.77-45.37,9.78-53.64,29.83,3.51,60.28,15.5,61.36,21.63.42,2.37-.44,5.07-1.64,8.17-13.11,6.88-29.12,14-32.48,22.77-4.69,12.23,5.24,20.77,16.09,22.74,9.77,1.77,18-.71,25.05-4.78C186.2,209.48,211,210.53,211,210.53Z"/></g><path class="cls-8" d="M267.07,222.28H149.29c-15.86,0-29.09-3.82-39.34-11.36-9-6.66-15.58-16-19.4-27.84-7.36-22.77,10.43-56.3,11.19-57.71l.58-1.09,1.23,0c.44,0,44.44,1.66,78.16,4.16,27.57,2,34.7,5.07,44.9,14.47,13.52,12.45,15.65,29.71,16,35.53,5.23.11,20,.75,34.08,4.62,10.74,3,18.11,13,16.78,22.77C292.92,209.72,289.48,222.28,267.07,222.28Zm-162.41-94c-3,5.92-16.48,34.55-10.35,53.54,5.38,16.64,19.28,36.47,55,36.47H267.07c13,0,21.35-4.86,22.46-13,.93-6.91-4-15.7-13.92-18.43-16.5-4.55-34.75-4.49-34.93-4.49h-2l0-2c0-.21.06-20.91-14.75-34.56-9.57-8.81-15.94-11.48-42.52-13.44C151,130.17,112.1,128.61,104.66,128.32Z"/><path class="cls-2" d="M267.07,222.28H149.29c-15.86,0-29.09-3.82-39.34-11.36-9-6.66-15.58-16-19.4-27.84-7.36-22.77,10.43-56.3,11.19-57.71l.58-1.09,1.23,0c.44,0,44.44,1.66,78.16,4.16,27.57,2,34.7,5.07,44.9,14.47,13.52,12.45,15.65,29.71,16,35.53,5.23.11,20,.75,34.08,4.62,10.74,3,18.11,13,16.78,22.77C292.92,209.72,289.48,222.28,267.07,222.28Zm-162.41-94c-3,5.92-16.48,34.55-10.35,53.54,5.38,16.64,19.28,36.47,55,36.47H267.07c13,0,21.35-4.86,22.46-13,.93-6.91-4-15.7-13.92-18.43-16.5-4.55-34.75-4.49-34.93-4.49h-2l0-2c0-.21.06-20.91-14.75-34.56-9.57-8.81-15.94-11.48-42.52-13.44C151,130.17,112.1,128.61,104.66,128.32Z"/><path class="cls-4" d="M297.76,89.36l-.12.91c-.14.86-.31,1.69-.51,2.48-4.67,18-26.73,15.77-27.15-4.08-.3-14.13-6.83-18.62-13-17.76a11.44,11.44,0,0,0-2.79.76,13.34,13.34,0,0,0-5.3,4,12.4,12.4,0,0,0-2.43,5.23A24.31,24.31,0,0,0,247.08,92c2.1,7.78,7.35,15.57,13,23.3,1.63,2.21,3.29,4.41,4.92,6.62a38.51,38.51,0,0,1,4.45,7.62,33.21,33.21,0,0,1,2.83,13.2,31.87,31.87,0,0,1-2,11c-6.15,16.72-26.2,28.12-50.91,19.42l2.62-21.67a23.64,23.64,0,0,0,14.16,4.3,14.9,14.9,0,0,0,1.51-.11h0l.5-.06c6.51-.88,11.43-4.76,12.53-8.78,3.46-12.68-14.21-34.4-19.84-46.6-10.47-22.73-1.81-44,16.82-51.31a38.18,38.18,0,0,1,8.14-2.19,41.29,41.29,0,0,1,4.8-.47c1.2-.05,2.38-.05,3.51,0C289,47.5,299.74,73.08,297.76,89.36Z"/><g class="cls-5"><path class="cls-2" d="M270.36,153.74c-6.15,16.72-26.2,28.12-50.91,19.42l2.62-21.67a23.64,23.64,0,0,0,14.16,4.3C242.32,164.47,261.28,168.44,270.36,153.74Z"/></g><g class="cls-5"><path class="cls-2" d="M238.82,86.8c3.83,14.14,16,24.49,21.3,28.49-5.69-7.73-10.94-15.52-13-23.3a24.31,24.31,0,0,1-.58-11.07,12.3,12.3,0,0,1,2.43-5.22A12.76,12.76,0,0,1,257,70.91c6.13-.86,12.66,3.63,13,17.76.42,19.85,22.49,22,27.15,4.08.2-.79.37-1.62.51-2.48-3.34,3.62-12.11,10.39-18.57,5.41-9.09-7-1.38-22.92-13.2-31.42C256.87,57.78,233.86,68.45,238.82,86.8Z"/></g><path class="cls-6" d="M250.52,65.08c.22.16,2.56-.92,2.54-.64a16.56,16.56,0,0,0,1.17,7.23h0a4.81,4.81,0,0,1,.53-.2l.46-.16.39-.11.35-.09c.34-.08.68-.14,1-.19,6.13-.86,12.66,3.63,13,17.76.42,19.85,22.48,22,27.15,4.08.2-.79.37-1.62.51-2.48-3.34,3.62-12.11,10.39-18.57,5.41-9.09-7-1.38-22.92-13.2-31.42-3.76-2.7-10-2.42-15.53.16C250.32,64.74,250.37,65,250.52,65.08Z"/><path class="cls-7" d="M254.23,71.67a11.44,11.44,0,0,1,2.79-.76c6.13-.86,12.66,3.63,13,17.76.42,19.85,22.48,22,27.15,4.08.2-.79.37-1.62.51-2.48l.12-.91c2-16.28-8.74-41.86-33.55-43.08-1.13-.06-2.31-.06-3.51,0a41.29,41.29,0,0,0-4.8.47c-1.39,1.27-4.61,5.81-5,10-.05.52,2.28-.9,2.18-.34-.33,1.89-3.58,8-2.6,8.67.22.16,2.56-.92,2.54-.64A16.58,16.58,0,0,0,254.23,71.67Z"/><g class="cls-5"><path class="cls-2" d="M250.52,65.08c.22.16,2.56-.92,2.54-.64a16.56,16.56,0,0,0,1.17,7.23h0l.53-.2.46-.16.39-.11.35-.09c.34-.08.68-.14,1-.19,6.13-.86,12.66,3.63,13,17.76.42,19.85,22.48,22,27.15,4.08.2-.79.37-1.62.51-2.48-3.34,3.62-12.11,10.39-18.57,5.41-9.09-7-1.38-22.92-13.2-31.42-3.76-2.7-10-2.42-15.53.16C250.32,64.74,250.37,65,250.52,65.08Z"/></g><path class="cls-2" d="M236.14,178.13A52.29,52.29,0,0,1,218.8,175a2,2,0,1,1,1.31-3.73c17.57,6.19,35,2,44.3-10.66,8.27-11.22,7.91-25.61-1-37.55l-1.85-2.49c-9.69-13-19.7-26.38-17.05-40,1.34-6.91,8.15-12.26,14.89-11.68,2.84.24,12.14,2.38,12.5,19.76.21,9.69,5.71,13.76,10.36,14.31,4.89.57,10.78-2.51,12.9-10.68,2.16-8.32.05-22.07-8.17-32.24a30.87,30.87,0,0,0-26.26-11.77c-11.95.5-22,6.06-27.66,15.27-6.13,10-6.27,23.12-.38,35.9a138.17,138.17,0,0,0,6.9,12.17c7.38,12.14,15.74,25.89,13.05,35.77-1,3.78-4.69,7.25-9.53,9.06-7.07,2.63-15.16,1.44-22.19-3.28a2,2,0,0,1,2.2-3.29c6,4,12.75,5.05,18.6,2.87,3.62-1.35,6.41-3.86,7.1-6.4,2.25-8.24-6-21.78-12.61-32.67a138.71,138.71,0,0,1-7.11-12.58c-6.45-14-6.23-28.43.6-39.61,6.32-10.35,17.57-16.61,30.87-17.17a34.66,34.66,0,0,1,29.49,13.24c8.11,10,11.78,24.73,8.93,35.72-2.72,10.48-10.59,14.39-17.19,13.61s-13.61-6.7-13.85-18.15c-.2-9.5-3.52-15.44-8.88-15.9-4.74-.4-9.72,3.56-10.68,8.49-2.31,12,7.17,24.66,16.33,36.94q.94,1.24,1.86,2.49c9.79,13.19,10.17,29.77,1,42.26a36.82,36.82,0,0,1-20,13.59A42.41,42.41,0,0,1,236.14,178.13Z"/><path class="cls-4" d="M272,217.69c-5.76,5-16.32.87-24.17-2.71l-.23.14c-8.42,4.89-23.24,7.76-33.61,3.79-23.29-8.93-14.93-42-9.73-47.46l3.09-28.7.92-8.51c36.94,11,34.94,47.33,34.94,47.33a16.63,16.63,0,0,1,2.12-.35A31.67,31.67,0,0,1,266,186.11a26,26,0,0,1,8.45,8.45h0C279.88,203.64,276.6,213.62,272,217.69Z"/><g class="cls-5"><path class="cls-2" d="M272,217.69c-5.76,5-16.32.87-24.17-2.71l-.23.14c-8.42,4.89-23.24,7.76-33.61,3.79-23.29-8.93-14.93-42-9.73-47.46l3.09-28.7,1.75-2.18s6,8.39,3.7,27c-.51,4.12-7.53,13.71-8.41,18.8-4.6,26.8,20,27.47,28.9,26.26,11.17-1.51,20-12.61,20-12.61s.54,6.75,4.55,11.1c5.12,5.53,20.3-.39,16.63-16.59C279.88,203.64,276.6,213.62,272,217.69Z"/></g><path class="cls-9" d="M272,217.69c-5.76,5-16.32.87-24.17-2.71l-.23.14c2-3,5.19-8.53,5.83-14.3.27,1.88,1.27,6.87,4.46,10.34,5.12,5.53,20.3-.39,16.63-16.59.13.2.25.42.36.62.23.42.45.84.64,1.27.1.21.19.41.28.63h0l.25.62.23.64h0c.07.2.14.42.2.62s.12.41.18.62a.06.06,0,0,0,0,0l.15.62c0,.16.08.33.11.5s.1.5.14.76.06.35.08.52C278,208.64,275.33,214.73,272,217.69Z"/><path class="cls-7" d="M272,217.69c-5.76,5-16.32.87-24.17-2.71l-.23.14c2.93-4.36,8.24-13.94,4.86-22a42.42,42.42,0,0,0-7.13-11.91A31.67,31.67,0,0,1,266,186.11C281.89,196.4,278.14,212.28,272,217.69Z"/><g class="cls-5"><path class="cls-2" d="M272,217.69c-5.76,5-16.32.87-24.17-2.71l-.23.14c2-3,5.19-8.53,5.83-14.3.27,1.88,1.27,6.87,4.46,10.34,5.12,5.53,20.3-.39,16.63-16.59.13.2.25.42.36.62.24.42.45.85.64,1.27.1.21.19.41.28.63h0l.25.62.23.64h0c.07.2.14.42.2.62s.12.41.18.62a.06.06,0,0,0,0,0l.15.62c0,.16.08.33.11.5s.1.5.14.76.06.35.08.52C278,208.64,275.33,214.73,272,217.69Z"/></g><path class="cls-2" d="M204.92,172.14a11.17,11.17,0,0,0-1.24,2.19,23.42,23.42,0,0,0-1,2.5,45,45,0,0,0-1.37,5.25,52.29,52.29,0,0,0-1,10.78,36.54,36.54,0,0,0,1.58,10.46,22.26,22.26,0,0,0,5.12,8.82,21.39,21.39,0,0,0,8.71,5.31,31.94,31.94,0,0,0,10.45,1.34,47.06,47.06,0,0,0,10.67-1.54,39.15,39.15,0,0,0,9.9-4h0a2,2,0,0,1,1.82-.1,72.1,72.1,0,0,0,9.81,3.8,27.33,27.33,0,0,0,4.94,1,12.53,12.53,0,0,0,4.62-.33,7.37,7.37,0,0,0,1.93-.88,7.17,7.17,0,0,0,.84-.64l.4-.38.39-.42a13.35,13.35,0,0,0,1.39-1.89,17.22,17.22,0,0,0,2.14-11.68,18.47,18.47,0,0,0-4.12-8.74,27.55,27.55,0,0,0-7.8-6.31,29.4,29.4,0,0,0-9.54-3.3,30.52,30.52,0,0,0-5-.39c-.85,0-1.69.05-2.53.13-.41,0-.83.09-1.24.15l-.6.1-.54.11h0a2,2,0,0,1-2.46-2c0-.53,0-1.2,0-1.82s-.05-1.26-.1-1.89c-.09-1.27-.23-2.53-.42-3.79a51.4,51.4,0,0,0-1.67-7.45,45.77,45.77,0,0,0-6.65-13.58,42.32,42.32,0,0,0-10.88-10.43,51.66,51.66,0,0,0-13.82-6.36h0a2,2,0,0,1,1.14-3.79,55.65,55.65,0,0,1,14.88,6.86,46.2,46.2,0,0,1,11.89,11.4,49.71,49.71,0,0,1,7.24,14.76,56.21,56.21,0,0,1,1.8,8c.2,1.35.35,2.72.45,4.09.05.68.08,1.37.1,2.06s0,1.36,0,2.15l-2.46-2,.79-.16.74-.12c.48-.08,1-.13,1.44-.18q1.44-.13,2.88-.15a34.21,34.21,0,0,1,5.72.45,33.38,33.38,0,0,1,10.82,3.74c.83.47,1.66,1,2.44,1.5.4.27.79.53,1.18.81l1.15.88a29.39,29.39,0,0,1,4.15,4.05,22.47,22.47,0,0,1,5,10.61,21.66,21.66,0,0,1-1.31,11.7,21.13,21.13,0,0,1-1.35,2.69,18.61,18.61,0,0,1-1.81,2.47l-.54.57-.57.55a10.55,10.55,0,0,1-1.31,1,11.11,11.11,0,0,1-3,1.36,16.16,16.16,0,0,1-6.1.48,31.34,31.34,0,0,1-5.66-1.12,74.47,74.47,0,0,1-10.37-4l1.83-.1a43.33,43.33,0,0,1-10.92,4.4,51.2,51.2,0,0,1-11.57,1.66,35.68,35.68,0,0,1-11.77-1.53,28.26,28.26,0,0,1-5.53-2.48,24.75,24.75,0,0,1-4.84-3.76,24.14,24.14,0,0,1-3.74-4.85,28,28,0,0,1-2.45-5.55,35.67,35.67,0,0,1-1.54-11.74,46.58,46.58,0,0,1,1.78-11.52,39.06,39.06,0,0,1,2-5.48,27.24,27.24,0,0,1,1.39-2.61,11.08,11.08,0,0,1,1.9-2.45,1,1,0,0,1,1.47,1.32Z"/><path class="cls-4" d="M212.07,160.16a29,29,0,0,1-5.59,11.66,34.11,34.11,0,0,1-10.72,9s-.79,11.81-9.58,18.39c-4.76,3.56-18.75,5.48-24.05-5.56-2.68-5.59-3.2-17.15,1.75-26.31A24,24,0,0,1,181,154.91l-4.46-22.71C203.45,126.47,215.9,142.84,212.07,160.16Z"/><g class="cls-5"><path class="cls-2" d="M212.74,154.61a28.12,28.12,0,0,1-.67,5.55,29,29,0,0,1-5.59,11.66,34.28,34.28,0,0,1-10.72,9s-.79,11.81-9.58,18.39c-4.76,3.56-18.75,5.48-24.05-5.56a21.55,21.55,0,0,1-1.69-6.07c.1.23.19.45.29.66,5.3,11,19.29,9.11,24.05,5.55,8.79-6.57,5.62-16.27,6.41-19.22s7.26-4,13.89-8.16c3.27-2.06,6.61-7,7.66-11.78Z"/></g><path class="cls-9" d="M201.63,176.82l-.06.05-.49.4-.63.5c-.18.15-.37.28-.55.42l-.54.39-.43.31-.08.05-.49.33a23.94,23.94,0,0,1-2.6,1.54s-.79,11.81-9.58,18.39c-4.76,3.56-18.75,5.48-24.05-5.56,0-.1-.09-.2-.14-.31a2.88,2.88,0,0,1-.13-.31,15.21,15.21,0,0,1-.56-1.53l-.15-.48c-.08-.31-.16-.62-.24-.95l-.15-.68a1.42,1.42,0,0,1,0-.22c-.05-.23-.09-.46-.13-.7h0c-.05-.29-.1-.58-.14-.88.1.23.19.45.29.66,5.3,11,19.29,9.11,24.05,5.55,8.79-6.57,5.62-16.27,6.41-19.22a2.62,2.62,0,0,1,.64-1.11C195.5,177,195.84,179.46,201.63,176.82Z"/><path class="cls-7" d="M201.63,176.82a31.08,31.08,0,0,1-5.87,4s-.79,11.81-9.58,18.39c-4.76,3.56-18.75,5.48-24.05-5.56-2.68-5.59-3.2-17.15,1.75-26.31,5.57-2.34,15.81-2.55,25,3.68C195.62,175.64,194.57,180,201.63,176.82Z"/><g class="cls-5"><path class="cls-2" d="M201.63,176.82l-.06.05-.49.4-.63.5c-.18.15-.37.28-.55.42l-.54.39-.43.31-.08.05-.49.33a23.94,23.94,0,0,1-2.6,1.54s-.79,11.81-9.58,18.39c-4.76,3.56-18.75,5.48-24.05-5.56,0-.1-.09-.2-.14-.31a2.88,2.88,0,0,1-.13-.31,15.21,15.21,0,0,1-.56-1.53l-.15-.48c-.08-.31-.16-.62-.24-.95l-.15-.68a1.42,1.42,0,0,1,0-.22c-.05-.23-.09-.46-.13-.7h0c-.05-.29-.1-.58-.14-.88.1.23.19.45.29.66,5.3,11,19.29,9.11,24.05,5.55,8.79-6.57,5.62-16.27,6.41-19.22a2.62,2.62,0,0,1,.64-1.11C195.5,177,195.84,179.46,201.63,176.82Z"/></g><path class="cls-2" d="M176.13,130.27a52,52,0,0,1,10.66-1.2h1.35l1.36.07c.9,0,1.81.17,2.71.27a32.14,32.14,0,0,1,5.36,1.2,25.54,25.54,0,0,1,9.65,5.51,23.39,23.39,0,0,1,6.09,9.38,26.72,26.72,0,0,1,1.3,11q0,.69-.15,1.38c-.07.45-.11.91-.2,1.36l-.27,1.35-.36,1.34-.36,1.33c-.14.44-.32.86-.48,1.3l-.49,1.29c-.18.42-.39.83-.58,1.25A33.5,33.5,0,0,1,205.4,176a41.15,41.15,0,0,1-4.1,3.59c-.73.54-1.47,1.07-2.23,1.56l-1.17.73c-.41.23-.78.45-1.27.69l1.11-1.65h0c0,.34-.06.59-.1.88s-.07.55-.11.82c-.09.54-.2,1.07-.3,1.61-.24,1.06-.5,2.11-.84,3.15a30.67,30.67,0,0,1-2.62,6c-.28.47-.55,1-.86,1.41l-.95,1.37a27.74,27.74,0,0,1-2.21,2.51l-.6.59c-.2.19-.42.36-.64.55-.44.35-.83.71-1.32,1.07a14.28,14.28,0,0,1-3.16,1.65,22.22,22.22,0,0,1-6.59,1.38,20.78,20.78,0,0,1-6.73-.69,16.59,16.59,0,0,1-6.17-3.18,16.28,16.28,0,0,1-2.44-2.54,19.3,19.3,0,0,1-1.82-3,22.68,22.68,0,0,1-1.86-6.48A35.52,35.52,0,0,1,160.91,169a28,28,0,0,1,3.32-5.66,24.72,24.72,0,0,1,4.66-4.65,23.51,23.51,0,0,1,5.7-3.18,27.32,27.32,0,0,1,6.22-1.53,1,1,0,0,1,.42,1.93h0a32.45,32.45,0,0,0-5.46,2.15l-1.27.69-1.21.79a22.56,22.56,0,0,0-2.25,1.75,24.5,24.5,0,0,0-6.45,9.25,33.75,33.75,0,0,0-2,17,19.18,19.18,0,0,0,1.47,5.29,14.41,14.41,0,0,0,1.37,2.27,12.88,12.88,0,0,0,1.78,1.91,12.44,12.44,0,0,0,4.64,2.43,16.63,16.63,0,0,0,5.42.58,17.7,17.7,0,0,0,5.39-1.09,10.11,10.11,0,0,0,2.27-1.18c.34-.24.71-.57,1.06-.86.17-.15.36-.28.53-.44l.49-.5a20.37,20.37,0,0,0,1.84-2.09l.81-1.15c.26-.39.49-.81.73-1.21a26.81,26.81,0,0,0,2.28-5.23c.3-.91.53-1.84.74-2.78.09-.46.19-.93.26-1.4,0-.24.07-.47.1-.7s.06-.48.07-.65h0v0a2,2,0,0,1,1.12-1.63c.28-.14.65-.35,1-.55s.69-.41,1-.63c.68-.44,1.34-.91,2-1.4a35.93,35.93,0,0,0,3.66-3.21,29.45,29.45,0,0,0,5.57-7.85c.17-.37.36-.72.52-1.09l.42-1.12c.13-.38.29-.75.41-1.13l.32-1.16.31-1.15.23-1.19c.09-.39.12-.79.18-1.19a11.7,11.7,0,0,0,.13-1.19,22.81,22.81,0,0,0-1.09-9.37,19.47,19.47,0,0,0-5.05-7.77,21.56,21.56,0,0,0-8.16-4.64,29.39,29.39,0,0,0-4.7-1.06c-.81-.08-1.61-.21-2.42-.23L188,133H186.8a48.34,48.34,0,0,0-9.84,1.11,2,2,0,0,1-.83-3.87Z"/><path class="cls-4" d="M198.15,109.17c1,38.34-43.36,48.92-64.05,55.85l-26.78,3.42c-14.07-1-38.11-.93-55.69-10.87a43.34,43.34,0,0,1-11.37-9.1,39.21,39.21,0,0,1-6-9.13,44.61,44.61,0,0,1-2.72-7.64q-.41-1.57-.72-3.24a60,60,0,0,1-1-10.61c0-3.31,1-14.8,3-26.19.68-3.88,1.47-7.74,2.37-11.27-7.59-20.87-13-47.7-6.94-57.95,4-6.67,17.55-2.22,39.09,11.93,13.09-7.88,32.05-10.66,35-11s22-2.46,36.62,1.88C156.3,6.11,168.33-1.61,173.83,3.85c8.47,8.4,10,35.73,7.86,57.84,6.9,12.54,13.59,30.58,14.66,34.9A58.28,58.28,0,0,1,198.15,109.17Z"/><g class="cls-10"><path class="cls-7" d="M181.8,28.39c-1.34-8.56-3.67-15.56-7.28-19.14C169,3.79,157,11.52,139.7,30.63c-14.65-4.33-33.7-2.26-36.62-1.88s-21.87,3.15-35,11C46.58,25.62,33,21.17,29,27.84c-2.58,4.36-3.09,11.72-2.23,20.35-1.67-10.91-1.57-20.5,1.54-25.75,4-6.67,17.55-2.22,39.09,11.93,13.09-7.88,32.05-10.66,35-11s22-2.46,36.62,1.88C156.3,6.11,168.33-1.61,173.83,3.85,178.17,8.15,180.67,17.41,181.8,28.39Z"/></g><path class="cls-7" d="M198.15,109.17c1,38.34-43.36,48.92-64.05,55.85l-26.78,3.42c-14.07-1-38.11-.93-55.69-10.87a43.34,43.34,0,0,1-11.37-9.1,39.21,39.21,0,0,1-6-9.13,44.61,44.61,0,0,1-2.72-7.64C68,155.67,90,140,97.85,117.15c3-8.82,11-10.65,14.46-11.1s11.64-.67,16.79,7.11C142.62,133.61,168.43,143.2,198.15,109.17Z"/><g class="cls-5"><path class="cls-2" d="M196.2,123.41C187.48,150.34,152,159,134.1,165l-26.78,3.42c-14.07-1-38.11-.93-55.69-10.87a43.34,43.34,0,0,1-11.37-9.1,38.94,38.94,0,0,1-3.5-4.67,51.58,51.58,0,0,0,6.16,4.06c13.38,7.57,56.44,6.73,75.92,4.25S185.29,137.46,196.2,123.41Z"/></g><path class="cls-2" d="M59.11,73.89c-1.18-1.41,3.59-16,16.4-13.48,4.62.89,5.59,5.15,2.27,6.51-3.16,1.3-4.72.78-9.56,3.21C65.48,71.51,60.29,75.29,59.11,73.89Z"/><path class="cls-2" d="M157,61.38c.78-1.66-7.49-14.54-19.27-8.92-4.24,2-4.1,6.4-.55,6.88,3.38.46,4.76-.44,10.06.7C150.23,60.68,156.2,63,157,61.38Z"/><path class="cls-11" d="M49.49,53.15c-5.15,7.13-7.78,16.51-8.44,15.54a2.55,2.55,0,0,1-.2-.34c-1.51-2.77-4.85-14.1-6.14-24.41-.21-1.66-.35-3.13-.43-4.44a23,23,0,0,1,.43-7.33A3,3,0,0,1,38.46,30C42.65,31,55,37.07,59.26,41.39,60,42.16,54.65,46,49.49,53.15Z"/><path class="cls-12" d="M49.49,53.15c-5.15,7.13-7.78,16.51-8.44,15.54a2.55,2.55,0,0,1-.2-.34c.64-5.57,3.36-13.51,5.48-19.27,2.9-7.86-3.12-13.06-7.92-14.23-1.64-.41-3.18,2.41-4.13,4.65a23,23,0,0,1,.43-7.33A3,3,0,0,1,38.46,30C42.65,31,55,37.07,59.26,41.39,60,42.16,54.65,46,49.49,53.15Z"/><path class="cls-2" d="M41.16,71a2.39,2.39,0,0,1-2-1.05c-1.69-2.48-5.37-15-6.71-25.74h0c-.73-5.81-.7-9.95.07-12.67A5.23,5.23,0,0,1,39,27.8c4.46,1.12,17.11,7.26,21.84,12,.51.5,1.49,1.91-.26,4.08-.5.63-1.24,1.38-2.16,2.34a73.26,73.26,0,0,0-7.12,8.23A64.69,64.69,0,0,0,45,66.22c-1.51,3.46-2,4.62-3.66,4.78ZM36.94,43.67a115,115,0,0,0,4.41,19.79,64.59,64.59,0,0,1,6.32-11.63,77.58,77.58,0,0,1,7.54-8.73l1.2-1.25C51.56,37.94,41.32,33,37.9,32.15a.78.78,0,0,0-1,.64c-.41,1.44-.73,4.49.07,10.88Z"/><path class="cls-11" d="M161.29,38.87c6.79,5.6,11.69,14,12.08,12.92a2.51,2.51,0,0,0,.11-.38c.76-3.06,1.15-14.87-.19-25.17-.22-1.66-.45-3.12-.7-4.4a23,23,0,0,0-2.26-7,3,3,0,0,0-4.18-1.19c-3.8,2.09-14.19,11-17.27,16.29C148.33,30.88,154.51,33.26,161.29,38.87Z"/><path class="cls-12" d="M161.29,38.87c6.79,5.6,11.69,14,12.08,12.92a2.51,2.51,0,0,0,.11-.38c-2-5.23-6.65-12.23-10.15-17.27-4.78-6.88-.26-13.42,4.09-15.77,1.49-.8,3.69,1.54,5.17,3.47a23,23,0,0,0-2.26-7,3,3,0,0,0-4.18-1.19c-3.8,2.09-14.19,11-17.27,16.29C148.33,30.88,154.51,33.26,161.29,38.87Z"/><path class="cls-2" d="M173.16,54.14c-1.33,0-2.18-1.07-4.27-3.74a64.57,64.57,0,0,0-9-9.8,73.33,73.33,0,0,0-9-6.19c-1.14-.69-2-1.23-2.69-1.71-2.23-1.67-1.64-3.28-1.28-3.89,3.39-5.78,14.1-14.9,18.13-17.12a5.24,5.24,0,0,1,7.19,2c1.43,2.44,2.5,6.45,3.26,12.25h0c1.4,10.74,1,23.77,0,26.6a2.4,2.4,0,0,1-1.85,1.55A2.74,2.74,0,0,1,173.16,54.14Zm-21.4-24.47,1.48.91a76.89,76.89,0,0,1,9.48,6.56,63.38,63.38,0,0,1,9,9.66,114.1,114.1,0,0,0-.7-20.27c-.83-6.37-1.91-9.25-2.67-10.54a.78.78,0,0,0-1.16-.36C164.15,17.32,155.47,24.66,151.76,29.67Z"/><path class="cls-2" d="M133.79,164.1c5.53-2.33,11.16-4.23,16.67-6.35a170.82,170.82,0,0,0,16.2-6.89c1.3-.66,2.6-1.32,3.86-2.05s2.51-1.48,3.75-2.23a64.16,64.16,0,0,0,7-5.12l.83-.69.78-.73,1.57-1.47,1.46-1.56c.24-.27.5-.52.73-.79l.67-.83a39.11,39.11,0,0,0,4.71-7.06l.91-1.9c.08-.16.16-.32.23-.48l.19-.5.37-1,.37-1,.19-.49.14-.51.57-2,.15-.51.1-.52.19-1.05c.12-.69.29-1.38.37-2.09l.21-2.11.11-1.06V112l0-2.14a7.69,7.69,0,0,0,0-1.07l-.07-1.07-.14-2.14c-.08-.71-.2-1.42-.29-2.13l-.31-2.13-.45-2.12-.46-2.12-.27-1-.32-1c-.9-2.76-1.93-5.54-3-8.29s-2.17-5.49-3.34-8.2c-2.31-5.43-4.8-10.79-7.6-15.92l-.31-.55.06-.63A184.22,184.22,0,0,0,180.27,36,117.46,117.46,0,0,0,179,23.37a56.35,56.35,0,0,0-3.06-12,20.34,20.34,0,0,0-2.83-5.07,4.54,4.54,0,0,0-.45-.52l-.22-.25a2,2,0,0,0-.22-.21,3.87,3.87,0,0,0-.4-.33l-.21-.15-.22-.11a4.17,4.17,0,0,0-2.08-.43,13.21,13.21,0,0,0-5.21,1.64A40.16,40.16,0,0,0,159,9.2a94.91,94.91,0,0,0-9.52,8.27c-3,3-6,6.06-8.83,9.23l-.92,1-1.32-.38a66.42,66.42,0,0,0-8.7-1.79c-3-.41-6-.61-9-.73s-6-.09-9,0-6,.36-9,.72-6,.94-8.89,1.57S87.91,28.51,85,29.37s-5.73,1.82-8.49,3a64.75,64.75,0,0,0-8,3.92L67.37,37l-1.15-.75C62.65,33.87,59,31.6,55.35,29.5a96.38,96.38,0,0,0-11.29-5.61A40,40,0,0,0,38.25,22a13.1,13.1,0,0,0-5.44-.28,4.19,4.19,0,0,0-1.9.93l-.18.17-.16.19a2.53,2.53,0,0,0-.31.42,1.5,1.5,0,0,0-.15.26L30,24a4.2,4.2,0,0,0-.3.6,20,20,0,0,0-1.46,5.62,55.92,55.92,0,0,0,0,12.4,122,122,0,0,0,2,12.52,184.39,184.39,0,0,0,7,24.53l.22.61-.16.62C35.88,86.57,34.83,92.39,34,98.22q-.66,4.38-1.16,8.78c-.34,2.93-.63,5.88-.8,8.77,0,.72-.07,1.43-.07,2.1s0,1.44,0,2.16c.06,1.44.17,2.88.34,4.3a49.57,49.57,0,0,0,1.67,8.4,37.89,37.89,0,0,0,8.1,14.73,43.29,43.29,0,0,0,13.69,10,75.22,75.22,0,0,0,16.48,5.4,154.66,154.66,0,0,0,17.41,2.54l8.83.92c3,.32,5.93.66,8.89,1.16a1,1,0,0,1-.13,1.92h0c-5.94.19-11.92.2-17.91-.2a126.93,126.93,0,0,1-17.92-2.45A79,79,0,0,1,54,161.08a47.19,47.19,0,0,1-15-10.91,41.79,41.79,0,0,1-9-16.28,53.66,53.66,0,0,1-1.84-9.09q-.27-2.3-.36-4.59c0-.77-.06-1.53-.07-2.3s0-1.6.07-2.36c.18-3,.47-6,.81-9s.72-6,1.16-8.92c.88-5.93,1.93-11.85,3.41-17.73l.06,1.23A187.84,187.84,0,0,1,26.07,56a124.2,124.2,0,0,1-2.07-13,59.72,59.72,0,0,1-.07-13.37,24.63,24.63,0,0,1,1.79-6.84c.12-.28.27-.56.42-.84l.22-.42a4.21,4.21,0,0,1,.25-.43,6.88,6.88,0,0,1,.65-.88l.36-.42a4.86,4.86,0,0,1,.41-.38,8.5,8.5,0,0,1,3.81-1.94,13.28,13.28,0,0,1,3.83-.26,25,25,0,0,1,3.53.52,43.62,43.62,0,0,1,6.47,2.07A97.87,97.87,0,0,1,57.51,25.7c3.8,2.15,7.49,4.46,11.13,6.83l-2.35,0a77.91,77.91,0,0,1,17.46-7.37c3-.9,6-1.67,9.1-2.34s6.11-1.23,9.26-1.65,6.25-.6,9.38-.72,6.26-.14,9.39,0a78.24,78.24,0,0,1,18.75,2.74l-2.25.63c2.92-3.21,5.92-6.37,9.05-9.41a100,100,0,0,1,10-8.62,42.92,42.92,0,0,1,5.74-3.63A24.1,24.1,0,0,1,165.45.71a13.28,13.28,0,0,1,3.77-.7,8.31,8.31,0,0,1,4.16.91c.17.08.34.17.49.26l.46.32a7,7,0,0,1,.84.69,4,4,0,0,1,.36.35l.32.35a8.17,8.17,0,0,1,.61.71,24.51,24.51,0,0,1,3.45,6.16,60.15,60.15,0,0,1,3.29,13,125.31,125.31,0,0,1,1.25,13.07,189.44,189.44,0,0,1-.7,26.1l-.25-1.19c2.89,5.32,5.41,10.78,7.75,16.3,1.17,2.76,2.29,5.55,3.36,8.35s2.11,5.61,3,8.51L198,95l.32,1.16.47,2.25.48,2.25.32,2.29c.11.76.22,1.52.31,2.28l.15,2.32.07,1.15a9,9,0,0,1,0,1.16l0,2.33,0,1.16-.11,1.16-.24,2.33c-.09.77-.28,1.53-.41,2.3l-.22,1.15-.11.57-.16.57-.64,2.25-.16.57-.21.55-.42,1.09L197,127l-.21.55c-.08.18-.17.35-.25.53l-1,2.11a42.75,42.75,0,0,1-5.18,7.75l-.74.9c-.25.3-.53.57-.79.86l-1.59,1.69-1.69,1.58-.85.78-.89.74a67.27,67.27,0,0,1-7.42,5.41c-1.3.79-2.59,1.61-3.93,2.33s-2.67,1.44-4,2.13c-2.72,1.34-5.47,2.61-8.27,3.72-1.4.58-2.81,1.09-4.21,1.63s-2.84,1-4.27,1.46c-5.7,1.87-11.48,3.39-17.25,4.8h0a1,1,0,0,1-1.17-.71A1,1,0,0,1,133.79,164.1Z"/><path class="cls-9" d="M129.39,119.23s1.13,8.85-6.84,9.39a7.18,7.18,0,0,1-7.53-4.44,7.21,7.21,0,0,1-6.18,6.19c-7.86,1.48-9-7.37-9-7.37l13.23-13.34.14,0Z"/><path class="cls-7" d="M129.32,119.3s-1.72,7.06-7.93,6.26c-7.07-.91-7.27-9.18-7.27-9.18l-.26,0s1.85,8-4.77,10.69c-5.82,2.31-9.23-4.11-9.23-4.11s-3.62-14.9,12.77-17S129.32,119.3,129.32,119.3Z"/><g class="cls-5"><path class="cls-2" d="M128.74,120.9c-.92,2-3.07,5.21-7.35,4.66-7.07-.91-7.28-9.18-7.28-9.18l-.25,0s1.85,8.07-4.77,10.7c-4,1.59-6.87-1-8.27-2.7a11.05,11.05,0,0,0,3.74-.82c10.93-4.34,8.19-15.25,8.19-15.25l.42,0s0,11.25,11.7,12.75A10.93,10.93,0,0,0,128.74,120.9Z"/></g><path class="cls-2" d="M100.85,122.47a12.45,12.45,0,0,0,.87,1c.31.32.64.61,1,.89a7.29,7.29,0,0,0,2.08,1.24,4.94,4.94,0,0,0,2.13.32,5.24,5.24,0,0,0,1.08-.24c.18-.06.37-.1.55-.18l.54-.25a6.05,6.05,0,0,0,3-3.39,10,10,0,0,0,.59-2.5c.06-.44.08-.89.1-1.34s0-.94,0-1.32v-.1a1.13,1.13,0,0,1,2.2-.41,10.63,10.63,0,0,1,.37,1.64,11.11,11.11,0,0,1,.15,1.64,10.81,10.81,0,0,1-.4,3.36,8.69,8.69,0,0,1-4.45,5.46l-.8.4a8.87,8.87,0,0,1-.87.29,8.55,8.55,0,0,1-1.84.34,7.55,7.55,0,0,1-3.67-.76,9,9,0,0,1-2.79-2.15,11.37,11.37,0,0,1-1-1.34,9.35,9.35,0,0,1-.79-1.51,1.12,1.12,0,0,1,1.88-1.17Z"/><path class="cls-2" d="M130.41,119.56a9.17,9.17,0,0,1-.39,1.66,11.57,11.57,0,0,1-.65,1.55,8.9,8.9,0,0,1-2.16,2.78,7.65,7.65,0,0,1-3.37,1.64,8.44,8.44,0,0,1-1.87.12,7,7,0,0,1-.91-.06l-.88-.19a8.66,8.66,0,0,1-5.66-4.19,10.66,10.66,0,0,1-1.22-3.16,11.37,11.37,0,0,1-.26-1.62,10.27,10.27,0,0,1-.05-1.68,1.12,1.12,0,0,1,2.23-.15l0,.1c.07.37.19.86.31,1.28s.26.87.42,1.28a9.6,9.6,0,0,0,1.2,2.27,6,6,0,0,0,3.78,2.53l.59.12c.19,0,.38,0,.57,0a5.83,5.83,0,0,0,1.11,0,4.93,4.93,0,0,0,2-.84,7.11,7.11,0,0,0,1.71-1.71,10.48,10.48,0,0,0,.71-1.11c.23-.37.44-.81.61-1.15l.06-.13a1.12,1.12,0,0,1,2.12.66Z"/><path class="cls-2" d="M121.7,111.08c.24,1.94-2.06,4-4.23,5.41a8.4,8.4,0,0,1-7.55,1c-2.45-.87-5.19-2.26-5.43-4.19C103.76,107.42,121,105.26,121.7,111.08Z"/><g class="cls-10"><path class="cls-7" d="M116.36,110.59c.07.56-.87,1.18-1.74,1.63a4.42,4.42,0,0,1-3,.37c-1-.21-2-.58-2.09-1.14C109.33,109.77,116.15,108.92,116.36,110.59Z"/></g><ellipse class="cls-8" cx="76.95" cy="110.57" rx="13.36" ry="14.02" transform="translate(-13.39 10.64) rotate(-7.28)"/><ellipse class="cls-7" cx="79.07" cy="113.57" rx="5.65" ry="5.93" transform="translate(-13.75 10.93) rotate(-7.28)"/><ellipse class="cls-7" cx="72.14" cy="105.38" rx="3.26" ry="3.42" transform="translate(-12.77 9.99) rotate(-7.28)"/><ellipse class="cls-8" cx="148.56" cy="101.42" rx="13.36" ry="14.02" transform="translate(-11.65 19.64) rotate(-7.28)"/><ellipse class="cls-7" cx="150.68" cy="104.42" rx="5.65" ry="5.93" transform="translate(-12.01 19.93) rotate(-7.28)"/><ellipse class="cls-7" cx="143.75" cy="96.23" rx="3.26" ry="3.42" transform="translate(-11.04 18.99) rotate(-7.28)"/><path class="cls-2" d="M41,126.39c-.34-.14-.75-.29-1.14-.43s-.78-.28-1.18-.41-.8-.26-1.21-.37l-1.21-.35c-1.62-.42-3.26-.83-4.91-1.12a66.07,66.07,0,0,0-10-1.11c-.84,0-1.69,0-2.53,0H17.57c-.43,0-.85,0-1.27.07q-1.26.09-2.52.15l-2.52.28c-1.69.14-3.34.55-5,.8l-.62.1-.62.15-1.24.3c-.83.2-1.66.38-2.49.57H1.2a1,1,0,0,1-.52-1.9c.83-.28,1.66-.55,2.5-.81l1.26-.4.63-.19.64-.16c.85-.21,1.71-.41,2.57-.6.43-.09.86-.21,1.29-.28l1.31-.21,2.61-.41c.88-.09,1.76-.16,2.64-.24.44,0,.88-.08,1.32-.1l1.33,0c.88,0,1.77-.07,2.65,0l2.65.11c.89,0,1.77.16,2.65.25s1.75.25,2.63.38,1.74.32,2.6.52a36.83,36.83,0,0,1,10,3.71,1,1,0,0,1,.37,1.34,1,1,0,0,1-1.23.43Z"/><path class="cls-2" d="M45,139.18c-1.44,0-3,.12-4.43.25s-3,.3-4.43.53a54.85,54.85,0,0,0-8.63,2,39.23,39.23,0,0,0-4.11,1.59c-.68.29-1.32.64-2,1s-1.29.7-1.91,1.09a32.83,32.83,0,0,0-6.83,5.51v0a1,1,0,0,1-1.5-1.29,29.37,29.37,0,0,1,6.9-6.49A32.34,32.34,0,0,1,22.15,141a35.44,35.44,0,0,1,4.39-1.79,42.29,42.29,0,0,1,9.2-2,38.42,38.42,0,0,1,9.4.08,1,1,0,0,1-.12,2Z"/><path class="cls-2" d="M186.35,106.19a37,37,0,0,1,8.74-6.1c.79-.4,1.58-.81,2.39-1.16s1.62-.73,2.45-1,1.66-.63,2.5-.9l2.54-.78c.84-.26,1.71-.43,2.57-.64l1.29-.3c.43-.1.87-.16,1.31-.24.87-.15,1.74-.3,2.61-.43l2.63-.26,1.32-.12c.44,0,.88,0,1.32-.06q1.32,0,2.64-.06h.66l.66,0,1.31.06c.88,0,1.76.1,2.63.16a1,1,0,0,1,0,2h-.08l-2.55.08-1.27,0-.64,0-.63,0c-1.69.18-3.39.2-5.06.49l-2.51.36c-.82.17-1.65.34-2.48.49-.41.09-.83.15-1.24.25l-1.22.32c-.81.23-1.64.39-2.44.65a63.43,63.43,0,0,0-9.42,3.59c-1.53.7-3,1.5-4.48,2.32-.37.2-.72.43-1.08.64s-.73.43-1.08.66-.7.45-1,.69-.7.48-1,.7l-.06,0a1,1,0,0,1-1.27-1.51Z"/><path class="cls-2" d="M186.43,119.17a38.75,38.75,0,0,1,9.08-2.44,42.88,42.88,0,0,1,9.41-.35,35.4,35.4,0,0,1,4.7.64,30.58,30.58,0,0,1,4.59,1.26,29.09,29.09,0,0,1,8.31,4.54,1,1,0,0,1-1.13,1.63l0,0a32.63,32.63,0,0,0-8-3.61c-.7-.23-1.42-.39-2.12-.58s-1.43-.31-2.16-.43a39.93,39.93,0,0,0-4.38-.5,54.6,54.6,0,0,0-8.85.24c-1.48.15-3,.36-4.42.6s-2.95.54-4.35.88H187a1,1,0,0,1-.61-1.87Z"/><path class="cls-4" d="M85.1,220.31C52.62,221.92,67.8,183.85,68,183.26h0a18.23,18.23,0,0,1-3.69-1.12,20.82,20.82,0,0,1-12.67-14.41c-3.13-12.1,10-19.93,19-4.59,0,0,25.46-9.35,29.57,11.79.63,3.19,1.24,6.59,1.7,10,.38,2.8.67,5.62.81,8.38C103.38,207.1,100.2,219.55,85.1,220.31Z"/><g class="cls-5"><path class="cls-2" d="M85.1,220.31C52.62,221.92,67.8,183.85,68,183.26h0a18.23,18.23,0,0,1-3.69-1.12c10.76,2.78,17.11,1.69,17.34,1.65-.28.2-11.13,8.26-6.38,20.58,3.78,9.8,25,8.81,27.41-11C103.38,207.1,100.2,219.55,85.1,220.31Z"/></g><path class="cls-7" d="M101.9,185a28.23,28.23,0,0,0-14.58-1.7c-12.51,1.63-19.29,0-19.29,0s-12.87-2-16.36-15.53a12.88,12.88,0,0,1,0-6.81c2.17-7.54,11.91-9.94,19,2.22,0,0,22.19-8.15,28.48,8a21.78,21.78,0,0,1,1.09,3.82C100.83,178.12,101.44,181.52,101.9,185Z"/><g class="cls-5"><path class="cls-2" d="M99.11,171.11c-8-7.71-20.81-7.34-23.45-5.47-1.23.87.23,2.46-.49,3.39-.49.63-3.83-2.49-5.92-2.64-2.51-.18-4.64,1.81-5,.65-.4-1.39,2.57-6.93-3.89-9-2.61-.85-6,1-8.75,2.9,2.17-7.54,11.91-9.94,19,2.22C70.63,163.14,92.82,155,99.11,171.11Z"/></g><path class="cls-2" d="M83.14,222.33c-8,0-13.76-2.47-17.23-7.35-6.66-9.37-2.4-24.72-.49-30.34a22.86,22.86,0,0,1-15.66-16.42c-1.68-6.49.83-12.74,6-14.85,4.26-1.75,10.52-.63,15.77,7.42,3.89-1.16,14.25-3.54,22.07.87,4.52,2.55,7.41,6.88,8.58,12.89,2.91,15,4.91,31.57-2.41,40.91-3.3,4.21-8.19,6.5-14.54,6.82C84.5,222.31,83.81,222.33,83.14,222.33ZM59.35,156.62a5.6,5.6,0,0,0-2.12.41c-2.82,1.16-5,5-3.64,10.2a19.15,19.15,0,0,0,14.76,14.08A2,2,0,0,1,69.86,184c-.07.19-7.57,19.07-.73,28.7,2.93,4.11,8.27,6,15.87,5.63,5.23-.26,9-2,11.62-5.31,6.38-8.14,4.23-24.43,1.65-37.71-.94-4.81-3.17-8.25-6.63-10.2-8-4.52-20.21-.15-20.33-.11a2,2,0,0,1-2.39-.86C65.68,158.58,62.15,156.62,59.35,156.62Z"/><path class="cls-2" d="M68.48,181.33c.46.14,1.06.29,1.61.41s1.14.23,1.72.33c1.16.2,2.33.35,3.51.46s2.36.19,3.55.21,2.39,0,3.59,0h0a1,1,0,0,1,.2,2c-1.23.2-2.46.4-3.7.53s-2.48.22-3.74.29-2.51.05-3.77,0c-.63,0-1.27,0-1.91-.1s-1.25-.11-2-.23a2,2,0,0,1,.63-3.91A2.14,2.14,0,0,1,68.48,181.33Z"/><path class="cls-2" d="M254.27,200.14a24.75,24.75,0,0,1-.33,2.79c-.16.91-.37,1.81-.61,2.71a27.56,27.56,0,0,1-2,5.23,21.15,21.15,0,0,1-3.27,4.71l-1,1c-.37.33-.75.64-1.13,1l-.57.47-.62.41-1.24.81a2,2,0,0,1-2.16-3.33l.15-.08.19-.11,1-.55.53-.27.49-.34,1-.67.91-.79a17.81,17.81,0,0,0,3.15-3.74,24.62,24.62,0,0,0,2.24-4.51c.29-.79.56-1.6.78-2.43a21,21,0,0,0,.54-2.46v-.06a1,1,0,0,1,2,.21Z"/><path class="cls-2" d="M239,183.21l-.09.06-.05,0h0s0,0,0-.05l.06-.14.14-.28c.1-.19.22-.37.33-.56a7,7,0,0,1,.85-1.09,4.58,4.58,0,0,1,1.32-1,2.74,2.74,0,0,1,1.28-.27,2.22,2.22,0,0,1,.86.21,2.36,2.36,0,0,1,.38.22,2.12,2.12,0,0,1,.43.42l.15.23.09.2a2.62,2.62,0,0,1,.13.35,3.39,3.39,0,0,1,.09.56,5.77,5.77,0,0,1,0,.84,9,9,0,0,1-.27,1.37,9.65,9.65,0,0,1-1,2.41,1,1,0,0,1-1.88-.54v0c0-.79.1-1.59.16-2.32,0-.37,0-.73,0-1a2.06,2.06,0,0,0,0-.38c0-.07-.08-.1.11.19a1,1,0,0,0,.21.21.34.34,0,0,0,.12.06.6.6,0,0,0,.27.07c.15,0,.16,0,.11,0a2.61,2.61,0,0,0-.67.37c-.26.2-.55.42-.84.66l-1.19.92a1,1,0,1,1-1.09-1.64Z"/><path class="cls-2" d="M184.29,190.16a20,20,0,0,1,.12,3.78,15.74,15.74,0,0,1-.71,3.82,10.2,10.2,0,0,1-2,3.65,8.85,8.85,0,0,1-1.7,1.46,9.19,9.19,0,0,1-2,1h0a2,2,0,0,1-1.35-3.73l.3-.09a5,5,0,0,0,2.34-1.08,7,7,0,0,0,1.73-2.29,13,13,0,0,0,1-3,16.84,16.84,0,0,0,.37-3.29v-.06a1,1,0,0,1,1-1A1,1,0,0,1,184.29,190.16Z"/><path class="cls-2" d="M169.28,188.59a20.7,20.7,0,0,0,0,3.52,16.83,16.83,0,0,0,.62,3.38,8.5,8.5,0,0,0,1.4,2.79,4.7,4.7,0,0,0,2.17,1.58,2,2,0,0,1-1.41,3.7l-.23-.1h0a9.42,9.42,0,0,1-1.95-1.41,9.26,9.26,0,0,1-1.44-1.84,11.81,11.81,0,0,1-1.41-4,19.44,19.44,0,0,1-.2-4,23.82,23.82,0,0,1,.51-3.9,1,1,0,0,1,1.95.29Z"/><path class="cls-2" d="M264.07,213.5A14.93,14.93,0,0,0,267,214a12.54,12.54,0,0,0,2.89-.15,7.72,7.72,0,0,0,2.46-.94,6.34,6.34,0,0,0,1.77-1.69l.07-.1a2,2,0,0,1,2.78-.36,2,2,0,0,1,.37,2.79l-.18.2a10.15,10.15,0,0,1-3.27,2.26,11.17,11.17,0,0,1-3.7.79,15.19,15.19,0,0,1-3.54-.35,16.66,16.66,0,0,1-3.31-1.09,1,1,0,0,1,.67-1.85Z"/><path class="cls-2" d="M266.38,199.56a17.24,17.24,0,0,1,3-.67,13.62,13.62,0,0,1,3.2-.08,9,9,0,0,1,3.36,1,7.59,7.59,0,0,1,1.56,1.12,8.25,8.25,0,0,1,1.23,1.53l0,.05a2,2,0,0,1-3.38,2.09,2.39,2.39,0,0,1-.16-.32,3.56,3.56,0,0,0-.43-.82,3.7,3.7,0,0,0-.67-.71,5.79,5.79,0,0,0-2-1,11.71,11.71,0,0,0-2.56-.38,15.89,15.89,0,0,0-2.68.13h-.06a1,1,0,0,1-.43-1.92Z"/><g class="cls-10"><path class="cls-7" d="M210.62,196.09c1.48,7.33,9,14.45,19,10.74,7.7-2.85-5.85-5.16-11.59-11.17C214.07,191.48,209.23,189.22,210.62,196.09Z"/></g><g class="cls-10"><path class="cls-7" d="M202,141.79c-.38,0,1.57,5.35.41,12.27-.51,3.05,5.13-.33,4.54-5.55A8.42,8.42,0,0,0,202,141.79Z"/></g><path class="cls-8" d="M60.43,137.14c-6.1,0-10.9-1.39-14.33-4.16-11-8.89-10.52-23.8-9.24-31.9,0-.17,0-.3,0-.38s0-.15,0-.24a12.48,12.48,0,0,1,7.65-9.6,39.44,39.44,0,0,1,9.27-2.42c10.93-1.53,21.88-1.08,30.05,1.25a13.47,13.47,0,0,1,9.65,11.08l1.63,11.66a18.76,18.76,0,0,1-12.53,20.4,85.63,85.63,0,0,1-15.31,3.79A51.08,51.08,0,0,1,60.43,137.14Zm6.11-46.63a89.09,89.09,0,0,0-12.26.87,36,36,0,0,0-8.56,2.23,9.48,9.48,0,0,0-5.84,7.28l0,.17c0,.11,0,.27-.07.48C38.61,109,38.12,122.72,48,130.67c4,3.21,10.36,4.22,19,3A82.61,82.61,0,0,0,81.72,130a15.81,15.81,0,0,0,10.55-17.18l-1.64-11.66a10.52,10.52,0,0,0-7.53-8.64A61.88,61.88,0,0,0,66.54,90.51Z"/><path class="cls-13" d="M193.57,97.86a31.07,31.07,0,0,1-5.4,18.93C180.31,128,162.49,129.68,148.28,129a24.18,24.18,0,0,1-21.49-15.73,24.6,24.6,0,0,1-1.29-5.1l-1.9-13.55a23.61,23.61,0,0,0-13-1.86,23.62,23.62,0,0,0-9.27,3.39,23.05,23.05,0,0,0-2.68,2l1.9,13.54a25.23,25.23,0,0,1,.16,5.27,24.18,24.18,0,0,1-16.33,21c-13.48,4.55-31.08,7.81-41.72-.77a31.11,31.11,0,0,1-10.4-16.72,51.63,51.63,0,0,1-.92-19.55h0c.14-.92.25-1.43.25-1.43s-6.73-5.82-.17-9.95c11.09-7,48.63-12.81,66.14.82a23.55,23.55,0,0,1,24.92-3.5c13.08-17.92,50.78-22.63,63.36-19,7.44,2.16,2.58,9.61,2.58,9.61s.24.46.63,1.31h0A51.41,51.41,0,0,1,193.57,97.86Z"/><path class="cls-14" d="M32.29,120.48l68.45-3.54a24.18,24.18,0,0,1-16.33,21c-13.48,4.55-31.08,7.81-41.72-.77A31.11,31.11,0,0,1,32.29,120.48Z"/><path class="cls-14" d="M193.57,97.86a31.07,31.07,0,0,1-5.4,18.93C180.31,128,162.49,129.68,148.28,129a24.18,24.18,0,0,1-21.49-15.73Z"/><path class="cls-15" d="M188.45,77.49s.24.46.63,1.31h0L136.46,90.06a121,121,0,0,1-23,2.49,24,24,0,0,0-2.82.22,23.67,23.67,0,0,0-2.76.56,121,121,0,0,1-22.81,3.94l-53.69,3.66h0c.14-.92.25-1.43.25-1.43s-6.73-5.82-.17-9.95c11.09-7,48.63-12.81,66.14.82a23.55,23.55,0,0,1,24.92-3.5c13.08-17.92,50.78-22.63,63.36-19C193.31,70,188.45,77.49,188.45,77.49Z"/><path class="cls-13" d="M93.74,112.63a17.31,17.31,0,0,1-11.55,18.8,83.86,83.86,0,0,1-15,3.72c-9.05,1.27-15.81.15-20.12-3.33-12.68-10.23-8.86-29.28-8.64-30.93a1.64,1.64,0,0,1,0-.22,11,11,0,0,1,6.75-8.44,38,38,0,0,1,8.92-2.32c9.16-1.28,20.4-1.37,29.43,1.2A12,12,0,0,1,92.1,101Z"/><path class="cls-2" d="M60.47,144c-7,0-13.58-1.52-18.71-5.67C26.5,126,29.24,104.51,30,100c-1.07-1.13-3.11-3.68-2.9-6.56.16-2,1.35-3.77,3.55-5.16,6.21-3.9,18.82-6.93,31.38-7.54,8.75-.42,24.76.06,35.51,7.74A25.18,25.18,0,0,1,122,85.05c8.22-10.35,23.49-15.21,32-17.21,12.24-2.88,25.2-3.43,32.24-1.39,2.5.73,4.12,2.07,4.83,4,1,2.71-.26,5.71-1,7.09,2,4.14,10.54,24.07-.74,40.12-8.32,11.83-27,13.51-41.18,12.84A25.7,25.7,0,0,1,124,108.38l-1.78-12.72a22.08,22.08,0,0,0-22,3.09L102,111.47a25.67,25.67,0,0,1-17.16,27.9C77.56,141.85,68.77,144,60.47,144Zm6.26-60.39c-14.36,0-28.61,3.47-34.49,7.17a3.93,3.93,0,0,0-2.17,2.86c-.15,1.92,1.77,4,2.52,4.71a1.49,1.49,0,0,1,.48,1.42c0,.24-4.77,23.88,10.56,36.26,10.2,8.24,27.55,4.82,40.3.51a22.72,22.72,0,0,0,15.18-24.68l-1.9-13.55A1.49,1.49,0,0,1,97.72,97a25,25,0,0,1,26.49-3.71,1.47,1.47,0,0,1,.86,1.14L127,108a22.73,22.73,0,0,0,21.38,19.56c13.45.63,31.07-.86,38.61-11.59,11.33-16.11.29-37.55.17-37.76a1.49,1.49,0,0,1,.07-1.5h0c.54-.84,1.8-3.41,1.13-5.22-.37-1-1.31-1.7-2.88-2.16-11.88-3.45-49.09,1.1-61.74,18.44a1.49,1.49,0,0,1-1.81.47,22.2,22.2,0,0,0-23.36,3.28,1.49,1.49,0,0,1-1.87,0C89.25,85.75,78,83.63,66.73,83.63Zm-6.3,53.51c-6.1,0-10.9-1.39-14.33-4.16-11-8.89-10.52-23.8-9.24-31.9,0-.17,0-.3,0-.38s0-.15,0-.24a12.48,12.48,0,0,1,7.65-9.6,39.44,39.44,0,0,1,9.27-2.42c10.93-1.53,21.88-1.08,30.05,1.25a13.47,13.47,0,0,1,9.65,11.08l1.63,11.66a18.76,18.76,0,0,1-12.53,20.4,85.63,85.63,0,0,1-15.31,3.79A51.08,51.08,0,0,1,60.43,137.14Zm6.11-46.63a89.09,89.09,0,0,0-12.26.87,36,36,0,0,0-8.56,2.23,9.48,9.48,0,0,0-5.84,7.28l0,.17c0,.11,0,.27-.07.48C38.61,109,38.12,122.72,48,130.67c4,3.21,10.36,4.22,19,3A82.61,82.61,0,0,0,81.72,130a15.81,15.81,0,0,0,10.55-17.18l-1.64-11.66a10.52,10.52,0,0,0-7.53-8.64A61.88,61.88,0,0,0,66.54,90.51Zm87,33.2q-2.43,0-5-.12a18.78,18.78,0,0,1-17.67-16.17l-1.63-11.65a13.48,13.48,0,0,1,6.23-13.32C142.68,78,153.08,74.53,164,73a39.34,39.34,0,0,1,9.58-.23,12.47,12.47,0,0,1,10,7.11,2.17,2.17,0,0,1,.11.26,3.53,3.53,0,0,1,.16.33c3.45,7.44,8,21.64-.11,33.21h0c-3.43,4.87-10,8-19.44,9.35A78.38,78.38,0,0,1,153.52,123.71Zm16.36-48.18a40,40,0,0,0-5.46.4c-10.53,1.48-20.51,4.77-27.39,9a10.53,10.53,0,0,0-4.85,10.39L133.81,107a15.82,15.82,0,0,0,14.87,13.62,83,83,0,0,0,15.21-.55c8.62-1.21,14.48-3.94,17.42-8.12h0c7.28-10.35,3-23.39-.15-30.25l-.2-.43-.07-.18a9.53,9.53,0,0,0-7.61-5.39A31.3,31.3,0,0,0,169.88,75.53Z"/><path class="cls-2" d="M92.1,101l1.64,11.65a17.31,17.31,0,0,1-11.55,18.8,88.94,88.94,0,0,1-13,3.39c-.7.13-1.39.23-2.07.33-5.88.82-10.8.64-14.71-.55A15.66,15.66,0,0,1,47,131.82l-.23-.19a24.24,24.24,0,0,1-7.75-12.19c-2.53-8.74-.8-17.46-.66-18.55a1.64,1.64,0,0,1,0-.22,11,11,0,0,1,6.75-8.44,38,38,0,0,1,8.92-2.32c2.47-.34,5.1-.61,7.8-.75a77,77,0,0,1,16.36.78,48.19,48.19,0,0,1,5.27,1.17c.47.14.92.3,1.36.48A12,12,0,0,1,92.1,101Z"/><g class="cls-16"><path class="cls-7" d="M78.24,89.94,46.8,131.63a24.24,24.24,0,0,1-7.75-12.19L61.88,89.16A77,77,0,0,1,78.24,89.94Z"/></g><g class="cls-16"><path class="cls-7" d="M92.1,101l.41,3L69.22,134.82c-.7.13-1.39.23-2.07.33-5.88.82-10.8.64-14.71-.55l32.43-43A12,12,0,0,1,92.1,101Z"/></g><path class="cls-2" d="M60.43,137.14c-6.1,0-10.9-1.39-14.33-4.16-11-8.89-10.52-23.8-9.24-31.9,0-.17,0-.3,0-.38s0-.15,0-.24a12.48,12.48,0,0,1,7.65-9.6,39.44,39.44,0,0,1,9.27-2.42c10.93-1.53,21.88-1.08,30.05,1.25a13.47,13.47,0,0,1,9.65,11.08h0l1.63,11.66a18.76,18.76,0,0,1-12.53,20.4,85.63,85.63,0,0,1-15.31,3.79A51.08,51.08,0,0,1,60.43,137.14Zm6.11-46.63a89.09,89.09,0,0,0-12.26.87,36,36,0,0,0-8.56,2.23,9.48,9.48,0,0,0-5.84,7.28l0,.17c0,.11,0,.27-.07.48C38.61,109,38.12,122.72,48,130.67c4,3.21,10.36,4.22,19,3A82.61,82.61,0,0,0,81.72,130a15.81,15.81,0,0,0,10.55-17.18l-1.64-11.66a10.52,10.52,0,0,0-7.53-8.64A61.88,61.88,0,0,0,66.54,90.51Z"/><path class="cls-2" d="M130.79,95.55l1.64,11.66A17.29,17.29,0,0,0,148.7,122.1a88.24,88.24,0,0,0,13.4-.31c.71-.07,1.4-.16,2.08-.25,5.88-.83,10.57-2.36,14-4.58a15.6,15.6,0,0,0,4.44-4.16l.17-.24a24.19,24.19,0,0,0,4.09-13.86c0-9.09-4-17-4.46-18l-.09-.2a11,11,0,0,0-8.8-6.26,38.18,38.18,0,0,0-9.22.23c-2.47.35-5.07.82-7.7,1.43a76.64,76.64,0,0,0-15.52,5.24,49.7,49.7,0,0,0-4.74,2.58,12.55,12.55,0,0,0-1.18.84A12,12,0,0,0,130.79,95.55Z"/><g class="cls-16"><path class="cls-7" d="M141.08,81.12l41.7,31.44a24.19,24.19,0,0,0,4.09-13.86L156.6,75.88A76.64,76.64,0,0,0,141.08,81.12Z"/></g><g class="cls-16"><path class="cls-7" d="M130.79,95.55l.42,3,30.89,23.29c.71-.07,1.4-.16,2.08-.25,5.88-.83,10.57-2.36,14-4.58l-43-32.42A12,12,0,0,0,130.79,95.55Z"/></g><path class="cls-8" d="M153.6,123.7q-2.41,0-5-.12A18.78,18.78,0,0,1,131,107.41l-1.64-11.65h0a13.49,13.49,0,0,1,6.23-13.32C142.76,78,153.17,74.51,164.1,73a39.33,39.33,0,0,1,9.58-.23,12.5,12.5,0,0,1,10,7.11l.11.26s.08.17.16.33c3.44,7.44,8,21.64-.12,33.21-3.42,4.87-10,8-19.43,9.34A76.92,76.92,0,0,1,153.6,123.7ZM132.26,95.34,133.9,107a15.81,15.81,0,0,0,14.87,13.62,83,83,0,0,0,15.21-.55c8.62-1.21,14.48-3.94,17.42-8.12,7.27-10.35,3-23.39-.16-30.25l-.19-.43-.08-.19a9.49,9.49,0,0,0-7.61-5.38,35.88,35.88,0,0,0-8.85.22C154,77.4,144,80.69,137.12,85a10.5,10.5,0,0,0-4.86,10.38Z"/><path class="cls-2" d="M153.52,123.71q-2.43,0-5-.12a18.78,18.78,0,0,1-17.67-16.17l-1.63-11.65a13.48,13.48,0,0,1,6.23-13.32C142.68,78,153.08,74.53,164,73a39.34,39.34,0,0,1,9.58-.23,12.47,12.47,0,0,1,10,7.11,2.17,2.17,0,0,1,.11.26,3.53,3.53,0,0,1,.16.33c3.45,7.44,8,21.64-.11,33.21h0c-3.43,4.87-10,8-19.44,9.35A78.38,78.38,0,0,1,153.52,123.71Zm16.36-48.18a40,40,0,0,0-5.46.4c-10.53,1.48-20.51,4.77-27.39,9a10.53,10.53,0,0,0-4.85,10.39L133.81,107a15.82,15.82,0,0,0,14.87,13.62,83,83,0,0,0,15.21-.55c8.62-1.21,14.48-3.94,17.42-8.12h0c7.28-10.35,3-23.39-.15-30.25l-.2-.43-.07-.18a9.53,9.53,0,0,0-7.61-5.39A31.3,31.3,0,0,0,169.88,75.53Z"/><path class="cls-2" d="M42.43,173.68l-5.81.44a4.94,4.94,0,0,0-4.56,4.55l-.43,5.82-.44-5.82a4.93,4.93,0,0,0-4.55-4.55l-5.82-.44,5.82-.44a4.93,4.93,0,0,0,4.55-4.55l.44-5.82.43,5.82a4.94,4.94,0,0,0,4.56,4.55Z"/><path class="cls-2" d="M220.2,47.74l-6.66.5a5.65,5.65,0,0,0-5.21,5.22l-.5,6.66-.5-6.66a5.66,5.66,0,0,0-5.22-5.22l-6.66-.5,6.66-.5A5.65,5.65,0,0,0,207.33,42l.5-6.67.5,6.67a5.64,5.64,0,0,0,5.21,5.21Z"/><path class="cls-2" d="M23.39,82l-3.59.27A3,3,0,0,0,17,85.07l-.27,3.59-.27-3.59a3,3,0,0,0-2.81-2.81L10.05,82l3.59-.27a3.05,3.05,0,0,0,2.81-2.81l.27-3.59L17,78.91a3.05,3.05,0,0,0,2.81,2.81Z"/></g></g></svg>